<?xml version="1.0" encoding="UTF-8"?>
<svg id="Layer_1" data-name="Layer 1" xmlns="http://www.w3.org/2000/svg" xmlns:xlink="http://www.w3.org/1999/xlink" viewBox="0 0 2000 500">
  <defs>
    <style>
      .cls-1 {
        fill: #fff;
      }

      .cls-2 {
        fill: url(#radial-gradient);
      }

      .cls-3 {
        fill: url(#radial-gradient-2);
      }
    </style>
    <radialGradient id="radial-gradient" cx="790.71" cy="127.89" fx="663.11" fy="121.18" r="127.78" gradientTransform="translate(101.3 1077.98) rotate(-94.1) scale(.96 .99)" gradientUnits="userSpaceOnUse">
      <stop offset=".31" stop-color="#e32b90"/>
      <stop offset=".39" stop-color="#de2a8f" stop-opacity="1"/>
      <stop offset=".49" stop-color="#cf2a8e" stop-opacity=".99"/>
      <stop offset=".6" stop-color="#b7298b" stop-opacity=".98"/>
      <stop offset=".72" stop-color="#962888" stop-opacity=".96"/>
      <stop offset=".84" stop-color="#6c2784" stop-opacity=".94"/>
      <stop offset=".96" stop-color="#38257e" stop-opacity=".91"/>
      <stop offset="1" stop-color="#26257d" stop-opacity=".9"/>
    </radialGradient>
    <radialGradient id="radial-gradient-2" cx="748.73" cy="94.17" fx="748.73" fy="94.17" r="161.13" gradientTransform="translate(-274.82 -305.71) rotate(45) scale(.96)" gradientUnits="userSpaceOnUse">
      <stop offset=".23" stop-color="#70cacf"/>
      <stop offset=".35" stop-color="#60b9c7"/>
      <stop offset=".56" stop-color="#398db4"/>
      <stop offset=".79" stop-color="#0b5b9e"/>
    </radialGradient>
  </defs>
  <g>
    <circle class="cls-1" cx="167.31" cy="262.48" r="132.45"/>
    <g>
      <path class="cls-2" d="M167.46,215.77c-22.99,0-43.99,9.3-59.97,24.57,7.91-27.59,31.77-47.63,59.97-47.63,28.21,0,52.06,20.05,59.97,47.63-15.98-15.27-36.98-24.57-59.97-24.57ZM167.46,389.08c-43.02,0-78.02-35-78.02-78.02,0-43.02,35-78.02,78.02-78.02,43.02,0,78.02,35,78.02,78.02,0,43.02-35,78.02-78.02,78.02ZM216.11,311.06c0-26.82-21.82-48.65-48.65-48.65-26.83,0-48.65,21.82-48.65,48.65,0,26.82,21.82,48.65,48.65,48.65,26.83,0,48.65-21.82,48.65-48.65Z"/>
      <path class="cls-3" d="M167.31,135.88c-69.19,0-125.47,56.29-125.47,125.47,0,30.32,11.1,59.58,30.87,82.31-.82-2.44-1.54-4.91-2.16-7.41-1.95-7.83-2.94-15.91-2.94-24.03,0-18.57,5.19-36.7,15.02-52.49-.08-10.73,1.85-21.33,5.75-31.52,3.96-10.38,9.75-19.79,17.19-27.98,15.86-17.45,37.75-27.45,61.65-28.16,10.19-.3,20.33,1.66,30.13,5.83,9.28,3.95,17.91,9.72,25.63,17.15,8.69,8.35,15.92,18.62,20.92,29.7,5.05,11.18,7.83,23.25,8.06,34.95,9.84,15.8,15.04,33.94,15.04,52.53,0,8.12-.99,16.2-2.94,24.03-.62,2.49-1.34,4.96-2.16,7.41,19.77-22.73,30.87-51.98,30.87-82.31,0-69.19-56.29-125.47-125.47-125.47Z"/>
    </g>
  </g>
  <g>
    <polygon class="cls-1" points="1858.13 280.47 1852.34 264.69 1846.55 280.47 1858.13 280.47"/>
    <path class="cls-1" d="M471.02,143.18h-86.48c-27.18,0-30.67,13.95-30.67,26.1v193c0,12.15,3.49,26.1,30.67,26.1s30.67-13.95,30.67-26.1v-60.92h46.54c22.53,0,40.31-7.71,54.39-23.57,14.35-16.18,21.59-34.62,22.13-56.38.54-21.67-5.69-39.81-19.04-55.44-13.09-15.33-28.86-22.78-48.21-22.78ZM444.77,254.57h-29.55v-74.66h29.55c25.78,0,39.98,13.26,39.98,37.33s-14.2,37.33-39.98,37.33Z"/>
    <path class="cls-1" d="M729.3,142.41c-27.19,0-30.67,13.95-30.67,26.1v145.42c0,11.05-4.39,29.6-33.8,29.6s-33.8-18.54-33.8-29.6v-145.42c0-12.15-3.49-26.1-30.67-26.1s-30.67,13.95-30.67,26.1v156.64c0,21.91,9.01,37.69,27.56,48.26,19.66,11.21,42.4,16.9,67.59,16.9s47.92-5.69,67.59-16.9c18.54-10.57,27.56-26.36,27.56-48.26v-156.64c0-12.15-3.49-26.1-30.67-26.1Z"/>
    <path class="cls-1" d="M923.72,264.8l67.53-74.29c7.53-8.31,11.36-15.84,11.36-22.38s-3.05-12.08-9.33-17.66c-6.55-5.81-13.18-8.64-20.27-8.64-6.71,0-14.37,4.59-22.74,13.63l-94.55,102.35v-89.3c0-12.15-3.49-26.1-30.67-26.1s-30.67,13.95-30.67,26.1v193.77c0,12.15,3.49,26.1,30.67,26.1s30.67-13.95,30.67-26.1v-90.14l94.57,102.82c8.23,8.9,15.88,13.42,22.72,13.42,7.22,0,13.9-2.85,20.44-8.71,6.3-5.64,9.36-11.39,9.36-17.58s-3.9-14.03-11.59-22.62l-67.49-74.67Z"/>
    <path class="cls-1" d="M1193.92,142.41c-27.18,0-30.67,13.95-30.67,26.1v145.42c0,11.05-4.39,29.6-33.8,29.6s-33.8-18.54-33.8-29.6v-145.42c0-12.15-3.49-26.1-30.67-26.1s-30.67,13.95-30.67,26.1v156.64c0,21.91,9.01,37.69,27.56,48.26,19.66,11.21,42.4,16.9,67.59,16.9s47.92-5.69,67.59-16.9c18.54-10.57,27.56-26.36,27.56-48.26v-156.64c0-12.15-3.49-26.1-30.67-26.1Z"/>
    <path class="cls-1" d="M1460.97,204.66c12.01-.05,22.74-16.34,22.08-28.32,0-4.76-2.08-14.69-18.75-25.78-77.66-51.6-211.71-2.96-208.2,112.31-3.69,114.37,130,162.83,207.62,111.85,17.05-11.2,19.2-20.97,19.34-25.7.34-11.97-10.08-28.3-22.08-28.32-4.47,0-13.91.98-32.61,8.08-150.27,57.05-148.92-192.63,0-132.2,18.85,6.68,28.14,8.08,32.61,8.08Z"/>
    <path class="cls-1" d="M1676.68,142.41c-27.19,0-30.67,13.95-30.67,26.1v72.91h-67.22v-72.91c0-12.15-3.49-26.1-30.67-26.1s-30.67,13.95-30.67,26.1v193.77c0,12.15,3.49,26.1,30.67,26.1s30.67-13.95,30.67-26.1v-74.07h67.22v74.07c0,12.15,3.49,26.1,30.67,26.1s30.67-13.95,30.67-26.1v-193.77c0-12.15-3.49-26.1-30.67-26.1Z"/>
    <path class="cls-1" d="M1881.76,164.3c-6.8-14.94-16.21-21.9-29.62-21.9s-22.82,6.95-29.61,21.88l-79.53,174.44c-2.75,6.05-4.14,12.29-4.14,18.53,0,5.73.03,10.8,8.37,20.5,5.7,6.63,13.56,10.63,26.06,10.63,7.41,0,18.08-2.22,25.26-21.4l9.16-24.63h89.25l9.16,24.64c7.17,19.16,18.07,21.38,25.64,21.38,12.72,0,20.35-4.15,26.12-10.46,9-9.87,8.13-14.72,8.13-20.47,0-6.2-1.45-12.49-4.32-18.68l-79.93-174.46ZM1824.93,295.57l27.41-74.72,27.41,74.72h-54.82Z"/>
  </g>
</svg>